<svg width="26" height="26" viewBox="0 0 26 26" fill="none" xmlns="http://www.w3.org/2000/svg">
<rect width="26" height="26" rx="13" fill="#E9E9E9"/>
<path fill-rule="evenodd" clip-rule="evenodd" d="M17.2183 3.26419C17.1482 3.14283 17.0328 3.05428 16.8975 3.01801C16.7621 2.98174 16.6179 3.00072 16.4965 3.07079L10.5175 6.52274H5.40902C4.63085 6.52274 4 7.15355 4 7.93175V20.2606C4 21.0388 4.63086 21.6696 5.40902 21.6696H21.2604C22.0386 21.6696 22.6695 21.0388 22.6695 20.2606V16.3295C22.6701 16.319 22.6704 16.3085 22.6704 16.2979V11.8947C22.6704 11.8841 22.6701 11.8736 22.6695 11.8632V7.93175C22.6695 7.15352 22.0386 6.52274 21.2604 6.52274H19.0996L17.2183 3.26419ZM21.6114 12.4231V15.7695H18.2893C17.2799 15.7695 16.506 14.9964 16.506 14.0963C16.506 13.1962 17.2798 12.4231 18.2893 12.4231H21.6114ZM21.6114 11.3663H18.2893C16.7454 11.3663 15.4493 12.5645 15.4493 14.0963C15.4493 15.628 16.7454 16.8263 18.2893 16.8263H21.6114V19.6005C21.6114 19.6133 21.6118 19.6259 21.6127 19.6385V20.2606C21.6127 20.4551 21.4551 20.6129 21.2604 20.6129H5.40902C5.21446 20.6129 5.05676 20.4551 5.05676 20.2606V7.93175C5.05676 7.73721 5.21446 7.5795 5.40902 7.5795H21.2604C21.4551 7.5795 21.6127 7.73723 21.6127 7.93175V8.99485C21.6118 9.00741 21.6114 9.02008 21.6114 9.03287V11.3663ZM17.8758 6.51666L12.6514 6.51099L16.5673 4.25016L17.8758 6.51666Z" fill="black"/>
<path d="M16.8975 3.01801L16.9492 2.82482L16.9492 2.82482L16.8975 3.01801ZM17.2183 3.26419L17.3915 3.1642L17.3915 3.1642L17.2183 3.26419ZM16.4965 3.07079L16.5965 3.244L16.5965 3.244L16.4965 3.07079ZM10.5175 6.52274V6.72274H10.5711L10.6175 6.69595L10.5175 6.52274ZM22.6695 16.3295L22.4695 16.3177V16.3295H22.6695ZM22.6695 11.8632H22.4692L22.4698 11.8749L22.6695 11.8632ZM19.0996 6.52274L18.9264 6.62274L18.9841 6.72274H19.0996V6.52274ZM21.6114 15.7695V15.9695H21.8114V15.7695H21.6114ZM21.6114 12.4231H21.8114V12.2231H21.6114V12.4231ZM21.6114 11.3663V11.5663H21.8114V11.3663H21.6114ZM21.6114 16.8263H21.8114V16.6263H21.6114V16.8263ZM21.6127 19.6385H21.8127V19.6314L21.8122 19.6243L21.6127 19.6385ZM21.6127 8.99485L21.8122 9.00903L21.8127 9.00195V8.99485H21.6127ZM12.6514 6.51099L12.5514 6.33778L11.9064 6.71018L12.6512 6.71099L12.6514 6.51099ZM17.8758 6.51666L17.8756 6.71666L18.2225 6.71703L18.049 6.41666L17.8758 6.51666ZM16.5673 4.25016L16.7405 4.15016L16.6405 3.97696L16.4673 4.07696L16.5673 4.25016ZM16.8457 3.21119C16.9298 3.23373 17.0015 3.28877 17.0451 3.36419L17.3915 3.1642C17.2949 2.9969 17.1358 2.87482 16.9492 2.82482L16.8457 3.21119ZM16.5965 3.244C16.6719 3.20045 16.7616 3.18865 16.8457 3.21119L16.9492 2.82482C16.7626 2.77482 16.5638 2.801 16.3965 2.89758L16.5965 3.244ZM10.6175 6.69595L16.5965 3.244L16.3965 2.89758L10.4175 6.34954L10.6175 6.69595ZM5.40902 6.72274H10.5175V6.32274H5.40902V6.72274ZM4.2 7.93175C4.2 7.26401 4.74131 6.72274 5.40902 6.72274V6.32274C4.5204 6.32274 3.8 7.04309 3.8 7.93175H4.2ZM4.2 20.2606V7.93175H3.8V20.2606H4.2ZM5.40902 21.4696C4.74131 21.4696 4.2 20.9283 4.2 20.2606H3.8C3.8 21.1493 4.52041 21.8696 5.40902 21.8696V21.4696ZM21.2604 21.4696H5.40902V21.8696H21.2604V21.4696ZM22.4695 20.2606C22.4695 20.9283 21.9282 21.4696 21.2604 21.4696V21.8696C22.1491 21.8696 22.8695 21.1493 22.8695 20.2606H22.4695ZM22.4695 16.3295V20.2606H22.8695V16.3295H22.4695ZM22.4704 16.2979C22.4704 16.3046 22.4702 16.3112 22.4698 16.3177L22.8692 16.3412C22.87 16.3269 22.8704 16.3125 22.8704 16.2979H22.4704ZM22.4704 11.8947V16.2979H22.8704V11.8947H22.4704ZM22.4698 11.8749C22.4702 11.8815 22.4704 11.8881 22.4704 11.8947H22.8704C22.8704 11.8802 22.87 11.8657 22.8692 11.8514L22.4698 11.8749ZM22.4695 7.93175V11.8632H22.8695V7.93175H22.4695ZM21.2604 6.72274C21.9282 6.72274 22.4695 7.264 22.4695 7.93175H22.8695C22.8695 7.04305 22.1491 6.32274 21.2604 6.32274V6.72274ZM19.0996 6.72274H21.2604V6.32274H19.0996V6.72274ZM17.0451 3.36419L18.9264 6.62274L19.2728 6.42274L17.3915 3.1642L17.0451 3.36419ZM21.8114 15.7695V12.4231H21.4114V15.7695H21.8114ZM21.6114 15.5695H18.2893V15.9695H21.6114V15.5695ZM18.2893 15.5695C17.3819 15.5695 16.706 14.8777 16.706 14.0963H16.306C16.306 15.1151 17.1779 15.9695 18.2893 15.9695V15.5695ZM16.706 14.0963C16.706 13.3149 17.3819 12.6231 18.2893 12.6231V12.2231C17.1778 12.2231 16.306 13.0775 16.306 14.0963H16.706ZM18.2893 12.6231H21.6114V12.2231H18.2893V12.6231ZM21.6114 11.1663H18.2893V11.5663H21.6114V11.1663ZM18.2893 11.1663C16.6448 11.1663 15.2493 12.4445 15.2493 14.0963H15.6493C15.6493 12.6846 16.846 11.5663 18.2893 11.5663V11.1663ZM15.2493 14.0963C15.2493 15.748 16.6448 17.0263 18.2893 17.0263V16.6263C16.846 16.6263 15.6493 15.5079 15.6493 14.0963H15.2493ZM18.2893 17.0263H21.6114V16.6263H18.2893V17.0263ZM21.8114 19.6005V16.8263H21.4114V19.6005H21.8114ZM21.8122 19.6243C21.8117 19.6165 21.8114 19.6085 21.8114 19.6005H21.4114C21.4114 19.618 21.412 19.6354 21.4132 19.6527L21.8122 19.6243ZM21.4127 19.6385V20.2606H21.8127V19.6385H21.4127ZM21.4127 20.2606C21.4127 20.3446 21.3446 20.4129 21.2604 20.4129V20.8129C21.5655 20.8129 21.8127 20.5656 21.8127 20.2606H21.4127ZM21.2604 20.4129H5.40902V20.8129H21.2604V20.4129ZM5.40902 20.4129C5.32491 20.4129 5.25676 20.3447 5.25676 20.2606H4.85676C4.85676 20.5656 5.104 20.8129 5.40902 20.8129V20.4129ZM5.25676 20.2606V7.93175H4.85676V20.2606H5.25676ZM5.25676 7.93175C5.25676 7.84767 5.32492 7.7795 5.40902 7.7795V7.3795C5.10401 7.3795 4.85676 7.62675 4.85676 7.93175H5.25676ZM5.40902 7.7795H21.2604V7.3795H5.40902V7.7795ZM21.2604 7.7795C21.3446 7.7795 21.4127 7.8477 21.4127 7.93175H21.8127C21.8127 7.62677 21.5655 7.3795 21.2604 7.3795V7.7795ZM21.4127 7.93175V8.99485H21.8127V7.93175H21.4127ZM21.8114 9.03287C21.8114 9.02482 21.8117 9.01687 21.8122 9.00903L21.4132 8.98067C21.412 8.99794 21.4114 9.01535 21.4114 9.03287H21.8114ZM21.8114 11.3663V9.03287H21.4114V11.3663H21.8114ZM12.6512 6.71099L17.8756 6.71666L17.876 6.31666L12.6516 6.31099L12.6512 6.71099ZM16.4673 4.07696L12.5514 6.33778L12.7514 6.68419L16.6673 4.42337L16.4673 4.07696ZM18.049 6.41666L16.7405 4.15016L16.3941 4.35016L17.7026 6.61666L18.049 6.41666Z" fill="black"/>
</svg>
