<svg width="20" height="20" viewBox="0 0 20 20" fill="none" xmlns="http://www.w3.org/2000/svg">
<path fill-rule="evenodd" clip-rule="evenodd" d="M7.49219 4.98688L13.2433 1.6665L15.1651 4.99521L7.49219 4.98688Z" stroke="black" stroke-linecap="round" stroke-linejoin="round"/>
<path d="M1.66699 5.83333C1.66699 5.37308 2.04009 5 2.50033 5H17.5003C17.9606 5 18.3337 5.37308 18.3337 5.83333V17.5C18.3337 17.9602 17.9606 18.3333 17.5003 18.3333H2.50033C2.04009 18.3333 1.66699 17.9602 1.66699 17.5V5.83333Z" stroke="black" stroke-linejoin="round"/>
<path d="M14.6875 13.7502H18.3333V9.5835H14.6875C13.4794 9.5835 12.5 10.5162 12.5 11.6668C12.5 12.8174 13.4794 13.7502 14.6875 13.7502Z" stroke="black" stroke-linejoin="round"/>
<path d="M18.333 6.875V16.875" stroke="black" stroke-linecap="round"/>
</svg>
