<svg width="32" height="29" viewBox="0 0 32 29" fill="none" xmlns="http://www.w3.org/2000/svg">
<path d="M15.4165 0.0856511C16.1051 -0.269411 16.946 0.551401 16.5809 1.22846C16.3667 1.78046 15.5603 1.92709 15.1492 1.5059C14.7136 1.1034 14.8559 0.304151 15.4165 0.0842137V0.0856511ZM8.00624 0.870526C8.42455 0.700901 8.95498 1.07753 8.91186 1.52746C8.95498 2.01334 8.35123 2.37271 7.9243 2.14128C7.35936 1.92565 7.42405 1.0229 8.00624 0.870526ZM23.1834 2.15421C22.5293 2.07659 22.4258 1.06459 23.054 0.860464C23.5427 0.627589 23.9912 1.06603 24.0631 1.52171C23.9596 1.90984 23.629 2.26634 23.1834 2.15421ZM9.69242 3.97265C10.3925 3.53709 11.3901 4.1854 11.2823 4.98609C11.2464 5.79253 10.1567 6.26115 9.54148 5.7149C8.94636 5.28653 9.03692 4.30328 9.69242 3.97265ZM20.373 4.43553C20.685 3.6449 21.95 3.61903 22.305 4.38953C22.6572 4.98896 22.2245 5.73215 21.5992 5.93628C20.7698 6.08865 19.9835 5.20603 20.373 4.43553ZM14.5239 5.89171C14.5167 5.21034 15.1463 4.70434 15.8032 4.6569C16.2402 4.74315 16.7146 4.92571 16.9015 5.3584C17.2508 5.9564 16.9403 6.77721 16.3121 7.05178C16.0246 7.2099 15.6825 7.15096 15.3691 7.13228C14.8904 6.90228 14.4865 6.44659 14.5239 5.89171ZM3.50399 6.88359C4.14367 6.49546 5.00617 7.19984 4.76324 7.88409C4.63099 8.4749 3.82311 8.71496 3.36167 8.33834C2.86861 7.98471 2.94624 7.13515 3.50542 6.88215L3.50399 6.88359ZM27.1681 6.88071C27.71 6.46671 28.6056 6.94253 28.5395 7.61528C28.5769 8.22909 27.802 8.6934 27.2644 8.37715C26.6722 8.11409 26.6104 7.21709 27.1681 6.88215V6.88071ZM17.6231 8.10402C18.5172 7.78778 19.581 8.16584 20.0899 8.95215C20.7626 9.91096 20.4061 11.3715 19.361 11.922C18.28 12.5732 16.7002 12.0227 16.2992 10.8324C15.8464 9.76865 16.5076 8.43752 17.6217 8.10402H17.6231ZM12.3719 8.20896C13.3638 7.74896 14.6992 8.13421 15.1779 9.13184C15.7414 10.1036 15.3059 11.4563 14.2982 11.958C13.289 12.5229 11.8645 12.0945 11.3772 11.0523C10.8295 10.0432 11.3154 8.67328 12.3719 8.20896ZM7.11499 9.97565C7.19117 9.34746 7.79349 8.93778 8.40155 8.89465C8.71866 8.92814 9.01504 9.06823 9.24221 9.292C9.46938 9.51578 9.61391 9.81001 9.65217 10.1266C9.60905 10.7735 9.10161 11.4031 8.40586 11.4002C7.63967 11.4649 6.96836 10.7145 7.11499 9.97565ZM22.6429 9.03265C23.4292 8.58271 24.5202 9.23678 24.4857 10.1252C24.5389 11.0667 23.3314 11.7294 22.5494 11.1774C21.7358 10.7174 21.799 9.42365 22.6429 9.03265ZM10.2372 12.349C11.1544 12.1003 12.2066 12.5258 12.6565 13.3567C13.1496 14.1933 12.9484 15.3548 12.1822 15.97C11.1975 16.8699 9.3848 16.5077 8.86155 15.28C8.25924 14.1545 8.99092 12.6451 10.2358 12.3475L10.2372 12.349ZM20.1948 12.3447C21.0875 12.0931 22.1369 12.4309 22.617 13.2316C23.2524 14.1473 22.949 15.5143 22.0046 16.1037C21.0127 16.7894 19.4804 16.43 18.9341 15.3577C18.2729 14.2493 18.9384 12.6825 20.1948 12.3447ZM4.3248 13.3883C5.1183 13.0936 5.99805 13.9547 5.67605 14.7295C5.48055 15.4338 4.46999 15.6955 3.94817 15.1751C3.33724 14.6863 3.56292 13.601 4.3248 13.3883ZM25.8427 14.5124C25.8278 14.196 25.9385 13.8864 26.1506 13.6512C26.3627 13.4159 26.6592 13.2739 26.9755 13.256C27.5189 13.3423 28.0479 13.7735 28.0047 14.3557C28.055 15.1248 27.1135 15.6466 26.4465 15.2858C26.1345 15.1291 25.975 14.8143 25.8427 14.5124ZM0.421986 13.7707C0.899236 13.5651 1.49005 13.9719 1.3808 14.4937C1.35492 15.0845 0.467986 15.3131 0.143111 14.8186C-0.144389 14.475 0.0281115 13.9475 0.421986 13.7692V13.7707ZM30.5362 13.7577C30.8725 13.5234 31.413 13.6916 31.5453 14.0783C31.771 14.5009 31.357 15.0788 30.874 15.0083C30.1955 15.0687 29.977 14.0524 30.5362 13.7577ZM12.8305 16.5939C14.0869 16.2733 15.4381 17.304 15.4467 18.5777C15.5272 19.8642 14.1961 21.0042 12.911 20.708C11.9162 20.5499 11.1357 19.6069 11.1687 18.6193C11.1659 17.6735 11.8904 16.7937 12.8305 16.5939ZM17.8071 16.5925C19.0822 16.2417 20.4737 17.2911 20.4535 18.5935C20.5211 19.8556 19.2317 20.9582 17.9724 20.7066C16.7865 20.5571 15.9125 19.2763 16.2431 18.1435C16.4099 17.3903 17.051 16.7779 17.8071 16.591V16.5925ZM8.21036 17.3759C9.09299 17.2278 9.92099 18.1953 9.56305 19.0204C9.30142 19.9002 8.00192 20.1373 7.42692 19.42C6.75417 18.73 7.2573 17.4708 8.21036 17.3759ZM22.8067 17.4147C23.5945 17.0898 24.5605 17.7597 24.5001 18.6007C24.5317 19.525 23.3386 20.1632 22.5695 19.6227C21.697 19.1383 21.8565 17.7108 22.8067 17.4147ZM26.8864 21.4397C26.5787 20.8748 27.1379 20.1258 27.7776 20.2308C28.0939 20.225 28.3167 20.4708 28.5194 20.6778C28.561 21.0128 28.6315 21.4124 28.3483 21.6697C27.9645 22.1484 27.0948 22.0118 26.8864 21.4397ZM3.50111 20.3875C4.09767 19.9979 4.95586 20.5801 4.82074 21.2643C4.74886 21.8724 3.97261 22.2188 3.4623 21.8738C2.91317 21.5619 2.9333 20.6721 3.50111 20.3875ZM15.2785 21.6568C16.0591 21.319 17.0539 21.9874 16.9791 22.8327C17.0366 23.767 15.8075 24.4139 15.0442 23.8533C14.1961 23.3717 14.3384 21.9543 15.2785 21.6568ZM9.82467 22.9088C10.4888 22.5653 11.38 23.159 11.3197 23.8921C11.3398 24.493 10.7447 25.0047 10.1409 24.9156C9.64211 24.9055 9.31723 24.4642 9.15624 24.0459C9.16486 23.5902 9.35605 23.0828 9.82467 22.9103V22.9088ZM20.8733 22.9203C21.5575 22.5035 22.5293 23.1015 22.4646 23.8835C22.4819 24.7028 21.3836 25.2261 20.7468 24.6885C20.1315 24.2673 20.2063 23.2553 20.8733 22.9203ZM22.7952 27.5922C22.4905 27.1408 22.8484 26.596 23.3415 26.4925C23.7397 26.5716 24.1609 26.8663 24.076 27.3177C24.0185 27.9315 23.1072 28.1183 22.7952 27.5937V27.5922ZM7.54192 27.1998C7.66267 26.8404 7.95592 26.4853 8.38573 26.5788C9.01105 26.6219 9.19649 27.5505 8.6488 27.8366C8.15717 28.1629 7.58505 27.7158 7.54192 27.1998ZM14.9019 27.6123C15.0212 27.0805 15.7184 26.8232 16.1784 27.1049C16.4832 27.2343 16.5723 27.5678 16.6499 27.8524C16.6089 28.0002 16.5706 28.1488 16.5349 28.298C16.3466 28.5165 16.1037 28.7365 15.7903 28.7293C15.2081 28.7968 14.682 28.1485 14.9005 27.6123H14.9019Z" fill="#0D1E30"/>
</svg>
