<svg width="37" height="37" viewBox="0 0 37 37" fill="none" xmlns="http://www.w3.org/2000/svg">
<path d="M11.6966 15.7488L18.5745 8.87087L25.456 15.7523L29.4581 11.7502L18.5745 0.866699L7.69454 11.7467L11.6966 15.7488ZM0.866211 18.575L4.86829 14.5729L8.87038 18.575L4.86829 22.5771L0.866211 18.575ZM11.6966 21.4013L18.5745 28.2792L25.456 21.3977L29.4581 25.3981L18.5745 36.2834L7.69454 25.4034L7.68923 25.3981L11.6966 21.4013ZM28.2787 18.575L32.2808 14.5729L36.2829 18.575L32.2808 22.5771L28.2787 18.575ZM22.6333 18.5715H22.6368V18.575L18.5745 22.6373L14.5176 18.5821L14.5105 18.575L14.5176 18.5697L15.2277 17.8578L15.573 17.5125L18.5745 14.5127L22.6351 18.5733L22.6333 18.5715Z" fill="#F3BA2F"/>
</svg>
