<svg width="25" height="33" viewBox="0 0 25 33" fill="none" xmlns="http://www.w3.org/2000/svg">
<path fill-rule="evenodd" clip-rule="evenodd" d="M24.1691 13.3985C24.6718 10.0326 22.109 8.22311 18.6048 7.01602L19.7415 2.45644L16.9653 1.76475L15.8586 6.20418C15.1297 6.02237 14.3804 5.85083 13.6357 5.68087L14.7503 1.21219L11.9765 0.520508L10.8389 5.07852C10.235 4.94097 9.64211 4.805 9.06663 4.66192L9.0698 4.64769L5.24221 3.69198L4.50388 6.65635C4.50388 6.65635 6.56313 7.12827 6.51965 7.15752C7.64374 7.43815 7.84769 8.18201 7.8129 8.77172L6.51807 13.9661C6.59554 13.9858 6.69593 14.0143 6.8066 14.0586L6.51412 13.9858L4.69835 21.2624C4.5608 21.6039 4.21219 22.1161 3.42644 21.9216C3.4541 21.962 1.40909 21.4181 1.40909 21.4181L0.03125 24.5959L3.64382 25.4963C4.0516 25.5985 4.45443 25.7035 4.85284 25.8075L4.85301 25.8075C5.11103 25.8749 5.36719 25.9417 5.62165 26.0069L4.47305 30.6195L7.24533 31.3112L8.38364 26.7484C9.14015 26.9539 9.87531 27.1437 10.5947 27.3223L9.46109 31.8637L12.2365 32.5554L13.3851 27.9523C18.1178 28.848 21.6774 28.4867 23.1738 24.207C24.3809 20.7604 23.1146 18.7723 20.6245 17.4751C22.4379 17.0553 23.8039 15.8625 24.1683 13.3985H24.1691ZM17.8265 22.2914C17.0386 25.4547 12.0862 24.1459 9.82224 23.5475L9.82208 23.5475C9.61941 23.4939 9.43829 23.4461 9.28364 23.4076L10.8077 17.2979C10.9968 17.345 11.2278 17.3969 11.4895 17.4556C13.8316 17.9812 18.6315 19.0583 17.8273 22.2914H17.8265ZM11.9609 14.6193C13.8499 15.1233 17.9675 16.2218 18.6849 13.3482C19.4182 10.4084 15.4142 9.52232 13.4588 9.08958C13.2389 9.04093 13.045 8.99801 12.8866 8.95855L11.5048 14.4999C11.6355 14.5325 11.789 14.5734 11.9609 14.6193Z" fill="#F7931A"/>
</svg>
