<svg width="32" height="32" viewBox="0 0 32 32" fill="none" xmlns="http://www.w3.org/2000/svg">
<path d="M21.8864 19.4026C21.8864 16.3128 20.0286 15.241 16.3112 14.7988C13.654 14.4454 13.1249 13.7367 13.1249 12.4989C13.1249 11.261 14.0093 10.4615 15.7782 10.4615C17.3733 10.4615 18.2578 10.9926 18.7 12.3212C18.7475 12.4492 18.8332 12.5595 18.9454 12.6372C19.0577 12.715 19.1911 12.7563 19.3276 12.7557H20.7431C20.8251 12.7578 20.9067 12.7432 20.9828 12.7128C21.059 12.6824 21.1282 12.6369 21.1862 12.5789C21.2442 12.5209 21.2898 12.4517 21.3202 12.3755C21.3506 12.2994 21.3651 12.2178 21.363 12.1358V12.0489C21.192 11.0896 20.7089 10.2136 19.9889 9.55713C19.2688 8.90061 18.3521 8.50031 17.3811 8.41842V6.29419C17.3811 5.9408 17.1146 5.67623 16.6724 5.5874H15.3437C14.9904 5.5874 14.7258 5.85196 14.637 6.29419V8.33731C11.974 8.70036 10.292 10.4615 10.292 12.6746C10.292 15.5964 12.0628 16.7473 15.7802 17.1895C18.2578 17.6318 19.0631 18.1551 19.0631 19.5783C19.0631 21.0016 17.8252 21.969 16.1432 21.969C13.8413 21.969 13.0534 21.0035 12.7792 19.6672C12.7539 19.5179 12.6771 19.3822 12.562 19.2837C12.447 19.1853 12.3011 19.1303 12.1497 19.1284H10.6376C10.5557 19.1265 10.4743 19.1413 10.3982 19.1718C10.3222 19.2023 10.2531 19.2479 10.1952 19.3058C10.1372 19.3638 10.0917 19.4328 10.0612 19.5089C10.0307 19.5849 10.0159 19.6664 10.0177 19.7483V19.8371C10.3731 22.0501 11.7886 23.6433 14.7103 24.0855V26.2098C14.7103 26.5632 14.9749 26.8297 15.4171 26.9185H16.7457C17.0991 26.9185 17.3656 26.652 17.4525 26.2098V24.0855C20.1078 23.6433 21.8786 21.7837 21.8786 19.3949L21.8864 19.4026Z" fill="#2775CA"/>
<path d="M11.5288 28.6949C8.98206 27.7608 6.78355 26.0673 5.23041 23.8433C3.67728 21.6193 2.84443 18.9721 2.84443 16.2595C2.84443 13.5469 3.67728 10.8997 5.23041 8.67568C6.78355 6.4517 8.98206 4.7582 11.5288 3.82409C11.6987 3.7506 11.8414 3.62584 11.937 3.46727C12.0325 3.30869 12.0762 3.12422 12.0618 2.93964V1.69987C12.0737 1.53725 12.0263 1.37582 11.9283 1.2455C11.8302 1.11518 11.6883 1.02482 11.5288 0.991148C11.4042 0.978153 11.279 1.00962 11.1754 1.07998C7.95315 2.10415 5.14041 4.12712 3.1443 6.85608C1.14819 9.58505 0.0722656 12.8784 0.0722656 16.2595C0.0722656 19.6406 1.14819 22.934 3.1443 25.6629C5.14041 28.3919 7.95315 30.4149 11.1754 31.439C11.249 31.4818 11.3316 31.5065 11.4166 31.5111C11.5016 31.5158 11.5865 31.5002 11.6643 31.4657C11.7421 31.4313 11.8106 31.3788 11.8643 31.3128C11.9179 31.2467 11.9552 31.1689 11.9729 31.0856C12.0618 30.9968 12.0618 30.908 12.0618 30.7303V29.4925C12.0618 29.226 11.7953 28.8726 11.5288 28.6949ZM20.9121 1.07998C20.8383 1.03723 20.7555 1.01258 20.6704 1.00804C20.5853 1.00351 20.5004 1.01924 20.4225 1.05392C20.3447 1.0886 20.2762 1.14125 20.2226 1.20755C20.1691 1.27385 20.132 1.3519 20.1145 1.4353C20.0276 1.5222 20.0276 1.61103 20.0276 1.7887V3.02654C20.0425 3.20504 20.0981 3.37775 20.1902 3.53141C20.2823 3.68506 20.4083 3.81557 20.5587 3.91292C23.1054 4.84703 25.3039 6.54053 26.857 8.76451C28.4102 10.9885 29.243 13.6357 29.243 16.3483C29.243 19.061 28.4102 21.7082 26.857 23.9322C25.3039 26.1561 23.1054 27.8496 20.5587 28.7837C20.3889 28.8573 20.2464 28.9821 20.1512 29.1408C20.056 29.2994 20.0128 29.4838 20.0276 29.6682V30.908C20.0156 31.0703 20.0628 31.2315 20.1604 31.3618C20.258 31.4921 20.3995 31.5826 20.5587 31.6167C20.6833 31.6297 20.8084 31.5982 20.9121 31.5279C24.1331 30.4895 26.9417 28.4563 28.9341 25.7208C30.9264 22.9852 31.9998 19.6881 31.9998 16.3039C31.9998 12.9197 30.9264 9.62268 28.9341 6.88709C26.9417 4.1515 24.1331 2.11831 20.9121 1.07998Z" fill="#2775CA"/>
</svg>
