<svg width="26" height="24" viewBox="0 0 26 24" fill="none" xmlns="http://www.w3.org/2000/svg">
<path fill-rule="evenodd" clip-rule="evenodd" d="M15.6436 12.9018V12.8991C15.4956 12.9099 14.7323 12.9558 13.0296 12.9558C11.6701 12.9558 10.7131 12.9153 10.3766 12.8991V12.9032C5.1432 12.6725 1.23701 11.7592 1.23701 10.6665C1.23701 9.57518 5.1432 8.66191 10.3766 8.42718V11.9939C10.7185 12.0182 11.6984 12.0762 13.0525 12.0762C14.6772 12.0762 15.4915 12.0088 15.6436 11.9953V8.42988C20.8662 8.66326 24.763 9.57653 24.763 10.6665C24.763 11.7592 20.8662 12.6698 15.6436 12.9018ZM15.6436 8.05891V4.86718H22.931V0H3.08915V4.86718H10.3766V8.05756C4.45403 8.33005 0 9.50638 0 10.9147C0 12.3231 4.45403 13.4981 10.3766 13.7719V24H15.6436V13.7692C21.5567 13.4967 26 12.3217 26 10.9147C26 9.50773 21.5567 8.33275 15.6436 8.05891Z" fill="#26A17B"/>
</svg>
