<svg width="91" height="98" viewBox="0 0 91 98" fill="none" xmlns="http://www.w3.org/2000/svg">
<g clip-path="url(#clip0_2197_1583)">
<path fill-rule="evenodd" clip-rule="evenodd" d="M20.7117 97.9621C19.716 98.1329 19.2616 97.7259 19.3485 96.7425C22.789 94.0245 26.2295 91.3074 29.6699 88.5898C23.6233 81.081 17.6078 73.5488 11.6237 65.9934C11.3928 65.999 11.1765 66.0847 10.9746 66.2502C9.48877 67.4349 7.99013 68.5979 6.47867 69.7391L5.91127 70.166C4.47276 71.3712 3.00128 72.5481 1.49709 73.6967C0.447033 74.0658 -0.050601 73.7021 0.00405693 72.6054C1.72494 71.146 3.47763 69.7337 5.26212 68.3686C7.23176 66.7851 9.22242 65.223 11.2342 63.6824C11.4939 63.5967 11.7536 63.5967 12.0132 63.6824C17.5717 70.4401 23.0678 77.2447 28.5015 84.0962C28.6843 84.1366 28.8573 84.0939 29.0208 83.9678C30.5538 82.7603 32.155 81.6475 33.8245 80.6297C35.124 80.4004 36.4223 80.4217 37.7193 80.6939C38.4345 80.742 39.1269 80.8277 39.7966 80.9506C46.2066 81.6578 52.6115 82.4067 59.0112 83.1975C60.9467 83.455 62.8076 83.1982 64.5939 82.4271C72.2146 78.3169 79.8312 74.2084 87.4437 70.1018C89.3392 68.3787 89.621 66.4314 88.2876 64.2601C87.1335 63.0701 85.7268 62.6207 84.0682 62.912C77.5657 65.8401 71.0743 68.793 64.5939 71.7709C63.3023 72.2675 62.783 71.8609 63.0359 70.5512C64.6835 69.6509 66.3712 68.8164 68.0993 68.0476C73.2721 65.6865 78.4653 63.3755 83.6787 61.1146C87.0114 60.6117 89.3704 61.8742 90.7544 64.9021C91.5061 67.981 90.5324 70.3561 87.8332 72.0276C80.8449 75.7611 73.8774 79.5272 66.9308 83.3258C64.4838 84.7547 61.844 85.3537 59.0112 85.1233C52.2387 84.3289 45.4876 83.4944 38.7579 82.6197C37.7742 82.5945 36.8221 82.4661 35.9017 82.2345C35.1574 82.1569 34.465 82.3067 33.8245 82.6839C32.4645 83.6649 31.1228 84.6707 29.7998 85.701C30.4457 86.5754 31.1165 87.4312 31.8121 88.2688C31.928 88.7074 31.8631 89.114 31.6174 89.4885C30.2084 90.5972 28.7866 91.6841 27.3522 92.7492L26.8137 93.1476C26.3258 93.6727 25.7633 94.1015 25.1259 94.4315C23.7166 95.6743 22.2452 96.8516 20.7117 97.9621ZM29.1506 58.0333C37.6403 59.0045 46.1224 60.0316 54.5971 61.1146C58.0297 62.6185 59.4795 65.2078 58.9463 68.8821C57.9664 72.1284 55.7593 73.8402 52.3251 74.0177C49.2719 73.6819 46.2209 73.3396 43.1721 72.9906C42.534 73.1829 41.9713 73.0974 41.4844 72.7338C39.9541 72.6307 38.4394 72.4381 36.9403 72.156C36.3861 71.5514 36.4293 70.9951 37.0702 70.487C39.8851 70.714 42.6981 70.9922 45.509 71.3215C46.1873 71.3248 46.8405 71.4008 47.4688 71.5495L47.5863 71.5783C49.543 71.9473 51.5337 72.097 53.5584 72.0276C56.3478 71.0613 57.5379 69.114 57.1287 66.186C56.575 64.3972 55.3849 63.2632 53.5584 62.7837C45.5942 61.8552 37.6314 60.9137 29.6699 59.9591C27.8294 59.6562 26.0983 59.9558 24.4768 60.8578C22.2899 62.5587 20.0396 64.1636 17.7257 65.6724C16.9281 65.5041 16.6469 65.0334 16.8818 64.2601C19.0089 62.5346 21.1943 60.887 23.4382 59.3172C25.2081 58.2996 27.1122 57.8715 29.1506 58.0333Z" fill="black"/>
</g>
<path d="M79 26C79 39.8071 67.8071 51 54 51C40.1929 51 29 39.8071 29 26C29 12.1929 40.1929 1 54 1C67.8071 1 79 12.1929 79 26Z" stroke="black" stroke-width="2"/>
<path d="M73 26C73 36.4934 64.4934 45 54 45C43.5066 45 35 36.4934 35 26C35 15.5066 43.5066 7 54 7C64.4934 7 73 15.5066 73 26Z" stroke="black" stroke-width="2"/>
<path d="M53.644 15.644V13.348H55.044V15.644C56.668 15.756 58.012 16.232 59.02 17.072C60.14 18.024 60.84 19.48 61.12 21.44H58.88C58.684 20.096 58.18 19.116 57.396 18.472C56.78 17.968 55.996 17.688 55.044 17.576V24.912C56.724 25.528 57.872 25.948 58.488 26.2C60.448 27.236 61.456 28.72 61.456 30.68C61.456 32.64 60.756 34.124 59.384 35.104C58.264 35.86 56.836 36.28 55.044 36.364V38.828H53.644V36.364C51.768 36.252 50.34 35.664 49.332 34.628C48.212 33.508 47.568 31.856 47.372 29.616H49.64C49.808 31.296 50.256 32.5 50.984 33.256C51.6 33.9 52.496 34.292 53.644 34.404V26.648C52.636 26.256 51.656 25.892 50.676 25.556C48.66 24.548 47.68 23.064 47.68 21.104C47.68 19.284 48.324 17.884 49.668 16.932C50.704 16.148 52.02 15.7 53.644 15.644ZM55.044 27.152V34.404C56.22 34.32 57.2 34.012 57.928 33.452C58.74 32.808 59.16 31.912 59.16 30.736C59.16 29.364 58.152 28.3 56.192 27.544C55.8 27.404 55.408 27.264 55.044 27.152ZM53.644 24.408V17.576C52.636 17.632 51.824 17.912 51.236 18.36C50.396 18.948 49.976 19.872 49.976 21.104C49.976 22.364 50.956 23.372 52.944 24.156L53.644 24.408Z" fill="black"/>
<defs>
<clipPath id="clip0_2197_1583">
<rect width="91" height="40" fill="white" transform="translate(0 58)"/>
</clipPath>
</defs>
</svg>
