<svg width="246" height="186" viewBox="0 0 246 186" fill="none" xmlns="http://www.w3.org/2000/svg">
<path d="M246 167C246 177.493 190.931 186 123 186C55.069 186 0 177.493 0 167C0 156.507 55.069 148 123 148C190.931 148 246 156.507 246 167Z" fill="white"/>
<path fill-rule="evenodd" clip-rule="evenodd" d="M210.682 164.209C210.682 164.209 210.669 164.231 210.631 164.274C210.662 164.23 210.682 164.209 210.682 164.209ZM206.376 167C202.221 165.035 195.959 163.127 187.863 161.471C171.438 158.113 148.532 156 123.084 156C97.6359 156 74.73 158.113 58.3049 161.471C50.2083 163.127 43.9465 165.035 39.7914 167C43.9465 168.965 50.2083 170.873 58.3049 172.529C74.73 175.887 97.6359 178 123.084 178C148.532 178 171.438 175.887 187.863 172.529C195.959 170.873 202.221 168.965 206.376 167ZM35.4858 164.209C35.4858 164.209 35.5062 164.23 35.5364 164.274C35.4991 164.231 35.4858 164.209 35.4858 164.209ZM35.4858 169.791C35.4858 169.791 35.4991 169.769 35.5364 169.726C35.5062 169.77 35.4858 169.791 35.4858 169.791ZM210.631 169.726C210.669 169.769 210.682 169.791 210.682 169.791C210.682 169.791 210.662 169.77 210.631 169.726ZM123.084 186C174.4 186 216 177.493 216 167C216 165.979 216 161 216 160C208.966 150.932 169.408 148 123.084 148C81.8011 148 40.7437 167.243 34.7004 161.122C28.657 155 30.1679 164.948 30.1679 167C30.1679 177.493 71.7678 186 123.084 186Z" fill="black"/>
<path d="M215 161C215 161.956 214.53 162.997 213.404 164.121C212.275 165.249 210.558 166.384 208.257 167.495C203.659 169.716 196.942 171.743 188.561 173.455C171.815 176.877 148.635 179 123 179C97.3651 179 74.1853 176.877 57.4392 173.455C49.058 171.743 42.3409 169.716 37.7433 167.495C35.4423 166.384 33.7248 165.249 32.596 164.121C31.4697 162.997 31 161.956 31 161C31 160.044 31.4697 159.003 32.596 157.879C33.7248 156.751 35.4423 155.616 37.7433 154.505C42.3409 152.284 49.058 150.257 57.4392 148.545C74.1853 145.123 97.3651 143 123 143C148.635 143 171.815 145.123 188.561 148.545C196.942 150.257 203.659 152.284 208.257 154.505C210.558 155.616 212.275 156.751 213.404 157.879C214.53 159.003 215 160.044 215 161Z" fill="white" stroke="black" stroke-width="2"/>
<path d="M205.527 159.604C205.73 159.902 205.869 160.203 205.941 160.507L205.455 160.623C205.485 160.749 205.5 160.875 205.5 161C205.5 161.125 205.485 161.251 205.455 161.377L205.941 161.493C205.869 161.797 205.73 162.098 205.527 162.396L205.114 162.114C204.967 162.33 204.775 162.552 204.535 162.779L204.878 163.142C204.654 163.355 204.396 163.565 204.107 163.774L203.814 163.368C203.572 163.543 203.304 163.717 203.01 163.892L203.266 164.322C202.993 164.484 202.702 164.644 202.391 164.804L202.163 164.359C201.89 164.499 201.6 164.638 201.296 164.777L201.503 165.232C201.21 165.365 200.903 165.498 200.584 165.629L200.393 165.167C200.098 165.288 199.791 165.409 199.471 165.529L199.647 165.997C199.348 166.109 199.039 166.221 198.72 166.332L198.556 165.86C198.248 165.967 197.93 166.073 197.604 166.179L197.758 166.655C197.453 166.753 197.141 166.851 196.822 166.948L196.676 166.47C196.363 166.565 196.042 166.66 195.713 166.754L195.851 167.234C195.541 167.323 195.225 167.411 194.903 167.498L194.772 167.016C194.454 167.102 194.129 167.188 193.798 167.273L193.922 167.757C193.61 167.837 193.293 167.917 192.97 167.996L192.851 167.51C192.53 167.589 192.204 167.667 191.873 167.744L191.986 168.231C191.671 168.305 191.35 168.378 191.025 168.451L190.916 167.963C190.596 168.034 190.271 168.105 189.942 168.176L190.046 168.665C189.724 168.734 189.398 168.802 189.068 168.87L188.967 168.38C188.648 168.446 188.326 168.511 187.999 168.575L188.096 169.066C187.768 169.131 187.437 169.195 187.101 169.259L187.008 168.768C186.69 168.828 186.369 168.888 186.044 168.948L186.134 169.439C185.81 169.499 185.481 169.558 185.15 169.617L185.063 169.124C184.737 169.182 184.408 169.239 184.076 169.296L184.16 169.789C183.838 169.843 183.514 169.898 183.186 169.952L183.105 169.459C182.778 169.512 182.448 169.566 182.116 169.619L182.194 170.113C181.868 170.165 181.54 170.216 181.208 170.267L181.132 169.773C180.809 169.823 180.483 169.872 180.155 169.921L180.228 170.416C179.899 170.465 179.567 170.514 179.233 170.562L179.162 170.067C178.836 170.114 178.508 170.161 178.178 170.207L178.247 170.702C177.922 170.747 177.594 170.792 177.264 170.837L177.197 170.342C176.868 170.386 176.536 170.43 176.203 170.474L176.268 170.97C175.94 171.013 175.61 171.056 175.279 171.098L175.215 170.602C174.89 170.643 174.563 170.684 174.234 170.725L174.295 171.221C173.965 171.262 173.633 171.302 173.299 171.342L173.24 170.845C172.911 170.885 172.58 170.924 172.247 170.962L172.304 171.459C171.978 171.497 171.651 171.534 171.321 171.571L171.265 171.074C170.936 171.111 170.605 171.148 170.273 171.184L170.327 171.681C169.995 171.717 169.661 171.753 169.325 171.788L169.272 171.291C168.947 171.325 168.62 171.359 168.292 171.393L168.343 171.89C168.014 171.924 167.683 171.957 167.351 171.99L167.302 171.493C166.97 171.526 166.637 171.558 166.302 171.59L166.35 172.088C166.021 172.12 165.692 172.151 165.36 172.182L165.314 171.684C164.986 171.714 164.657 171.745 164.326 171.774L164.371 172.272C164.04 172.302 163.708 172.332 163.374 172.361L163.33 171.863C162.998 171.892 162.665 171.921 162.331 171.949L162.373 172.447C162.046 172.475 161.717 172.502 161.387 172.529L161.346 172.031C161.017 172.058 160.686 172.084 160.354 172.111L160.393 172.609C160.061 172.635 159.727 172.661 159.392 172.687L159.353 172.189C159.024 172.214 158.693 172.239 158.361 172.263L158.398 172.762C158.069 172.786 157.739 172.81 157.408 172.834L157.372 172.335C157.042 172.359 156.71 172.382 156.377 172.405L156.411 172.904C156.077 172.927 155.743 172.949 155.407 172.972L155.374 172.473C155.046 172.495 154.716 172.516 154.386 172.537L154.418 173.036C154.088 173.057 153.757 173.078 153.425 173.099L153.394 172.6C153.063 172.62 152.73 172.64 152.397 172.66L152.426 173.159C152.093 173.179 151.759 173.199 151.423 173.218L151.395 172.719C151.067 172.737 150.737 172.756 150.407 172.774L150.435 173.273C150.104 173.291 149.772 173.309 149.44 173.326L149.414 172.827C149.082 172.845 148.748 172.862 148.415 172.879L148.44 173.378C148.107 173.395 147.773 173.411 147.439 173.427L147.415 172.928C147.086 172.944 146.756 172.959 146.425 172.975L146.448 173.474C146.117 173.489 145.785 173.504 145.453 173.519L145.431 173.019C145.098 173.034 144.765 173.048 144.431 173.062L144.452 173.562C144.119 173.576 143.786 173.589 143.452 173.602L143.432 173.103C143.103 173.116 142.772 173.129 142.442 173.141L142.46 173.641C142.129 173.653 141.797 173.665 141.464 173.677L141.446 173.177C141.114 173.189 140.781 173.201 140.447 173.212L140.463 173.712C140.131 173.723 139.797 173.734 139.463 173.744L139.447 173.245C139.117 173.255 138.787 173.265 138.456 173.275L138.471 173.775C138.139 173.784 137.807 173.794 137.474 173.803L137.461 173.303C137.128 173.312 136.795 173.321 136.461 173.33L136.474 173.83C136.141 173.838 135.807 173.846 135.472 173.854L135.461 173.354C135.131 173.362 134.8 173.37 134.469 173.377L134.48 173.877C134.149 173.884 133.817 173.891 133.484 173.897L133.474 173.397C133.142 173.404 132.809 173.41 132.475 173.416L132.484 173.916C132.15 173.922 131.816 173.928 131.481 173.933L131.473 173.433C131.143 173.438 130.812 173.443 130.481 173.448L130.488 173.948C130.157 173.952 129.825 173.957 129.493 173.961L129.487 173.461C129.154 173.465 128.822 173.469 128.489 173.472L128.494 173.972C128.16 173.975 127.826 173.978 127.491 173.981L127.487 173.481C127.156 173.484 126.825 173.487 126.493 173.489L126.496 173.989C126.165 173.991 125.833 173.993 125.501 173.994L125.499 173.494C125.167 173.496 124.834 173.497 124.501 173.498L124.503 173.998C124.169 173.999 123.836 173.999 123.502 174L123.501 173.5L123 173.5L122.499 173.5L122.498 174C122.164 173.999 121.831 173.999 121.497 173.998L121.499 173.498C121.166 173.497 120.833 173.496 120.501 173.494L120.499 173.994C120.167 173.993 119.835 173.991 119.504 173.989L119.507 173.489C119.175 173.487 118.844 173.484 118.513 173.481L118.509 173.981C118.174 173.978 117.84 173.975 117.506 173.972L117.511 173.472C117.178 173.469 116.846 173.465 116.513 173.461L116.507 173.961C116.175 173.957 115.843 173.952 115.512 173.948L115.519 173.448C115.188 173.443 114.857 173.438 114.527 173.433L114.519 173.933C114.184 173.928 113.85 173.922 113.516 173.916L113.525 173.416C113.191 173.41 112.858 173.404 112.526 173.397L112.516 173.897C112.183 173.891 111.851 173.884 111.52 173.877L111.531 173.377C111.2 173.37 110.869 173.362 110.539 173.354L110.528 173.854C110.193 173.846 109.859 173.838 109.526 173.83L109.539 173.33C109.205 173.321 108.872 173.312 108.539 173.303L108.526 173.803C108.193 173.794 107.861 173.784 107.529 173.775L107.544 173.275C107.213 173.265 106.883 173.255 106.553 173.245L106.537 173.744C106.203 173.734 105.869 173.723 105.537 173.712L105.553 173.212C105.219 173.201 104.886 173.189 104.554 173.177L104.536 173.677C104.203 173.665 103.871 173.653 103.54 173.641L103.559 173.141C103.228 173.129 102.897 173.116 102.568 173.103L102.548 173.602C102.214 173.589 101.881 173.576 101.548 173.562L101.569 173.062C101.235 173.048 100.902 173.034 100.569 173.019L100.547 173.519C100.215 173.504 99.8827 173.489 99.5516 173.474L99.5746 172.975C99.2439 172.959 98.9141 172.944 98.5852 172.928L98.5611 173.427C98.2266 173.411 97.893 173.395 97.5604 173.378L97.5855 172.879C97.2515 172.862 96.9185 172.845 96.5864 172.827L96.5601 173.326C96.2276 173.309 95.8961 173.291 95.5655 173.273L95.5928 172.774C95.2626 172.756 94.9334 172.737 94.6051 172.719L94.5766 173.218C94.2413 173.199 93.9071 173.179 93.5739 173.159L93.6035 172.66C93.2698 172.64 92.9372 172.62 92.6056 172.6L92.5748 173.099C92.2428 173.078 91.9118 173.057 91.5819 173.036L91.6139 172.537C91.2836 172.516 90.9544 172.495 90.6262 172.473L90.5931 172.972C90.2573 172.949 89.9226 172.927 89.5891 172.904L89.6235 172.405C89.2904 172.382 88.9584 172.359 88.6277 172.335L88.592 172.834C88.2608 172.81 87.9308 172.786 87.602 172.762L87.6388 172.263C87.3069 172.239 86.9761 172.214 86.6466 172.189L86.6084 172.687C86.2733 172.661 85.9395 172.635 85.6069 172.609L85.6464 172.111C85.3143 172.084 84.9834 172.058 84.6539 172.031L84.6131 172.529C84.2831 172.502 83.9545 172.475 83.6271 172.447L83.6692 171.949C83.3347 171.921 83.0016 171.892 82.6699 171.863L82.6264 172.361C82.2925 172.332 81.9599 172.302 81.6288 172.272L81.6737 171.774C81.3431 171.745 81.0139 171.714 80.6862 171.684L80.6398 172.182C80.3085 172.151 79.9786 172.12 79.6502 172.088L79.6981 171.59C79.3632 171.558 79.0299 171.526 78.6982 171.493L78.6489 171.99C78.3167 171.957 77.9861 171.924 77.6571 171.89L77.708 171.393C77.3796 171.359 77.0527 171.325 76.7276 171.291L76.6751 171.788C76.3393 171.753 76.0053 171.717 75.673 171.681L75.7272 171.184C75.3946 171.148 75.0637 171.111 74.7347 171.074L74.6789 171.571C74.3493 171.534 74.0216 171.497 73.6956 171.459L73.7531 170.962C73.4202 170.924 73.0893 170.885 72.7602 170.845L72.7009 171.342C72.367 171.302 72.035 171.262 71.7051 171.221L71.7663 170.725C71.437 170.684 71.1098 170.643 70.7845 170.602L70.7215 171.098C70.3896 171.056 70.0598 171.013 69.7322 170.97L69.7973 170.474C69.4636 170.43 69.1322 170.386 68.803 170.342L68.7359 170.837C68.4061 170.792 68.0785 170.747 67.7532 170.702L67.8224 170.207C67.492 170.161 67.164 170.114 66.8384 170.067L66.7669 170.562C66.4327 170.514 66.1009 170.465 65.7718 170.416L65.8455 169.921C65.5171 169.872 65.1913 169.823 64.8682 169.773L64.792 170.267C64.4605 170.216 64.1317 170.165 63.8056 170.113L63.8843 169.619C63.5517 169.566 63.2221 169.512 62.8954 169.459L62.8141 169.952C62.4865 169.898 62.1618 169.844 61.8401 169.789L61.9242 169.296C61.5919 169.239 61.2628 169.182 60.937 169.124L60.85 169.617C60.5185 169.558 60.1904 169.499 59.8657 169.439L59.9558 168.948C59.6312 168.888 59.31 168.828 58.9922 168.768L58.8988 169.259C58.5633 169.195 58.2317 169.131 57.9039 169.066L58.0008 168.575C57.6743 168.511 57.3516 168.446 57.0328 168.38L56.9321 168.87C56.6018 168.802 56.2756 168.734 55.9536 168.665L56.0584 168.176C55.7291 168.105 55.4043 168.034 55.0841 167.963L54.975 168.451C54.6499 168.378 54.3294 168.305 54.0136 168.231L54.1274 167.744C53.7959 167.667 53.4697 167.589 53.1489 167.51L53.0299 167.996C52.7073 167.917 52.39 167.837 52.0781 167.757L52.2025 167.273C51.8713 167.188 51.5464 167.102 51.2278 167.016L51.0971 167.498C50.7748 167.411 50.4589 167.323 50.1493 167.234L50.2868 166.754C49.9583 166.66 49.6373 166.565 49.3237 166.47L49.1784 166.948C48.8587 166.851 48.5467 166.753 48.2423 166.655L48.3963 166.179C48.0696 166.073 47.7522 165.967 47.4441 165.86L47.2799 166.332C46.9611 166.221 46.652 166.109 46.3528 165.997L46.5287 165.529C46.2095 165.409 45.902 165.288 45.6066 165.167L45.4165 165.629C45.0968 165.498 44.7903 165.365 44.4973 165.232L44.7044 164.777C44.3995 164.638 44.1105 164.499 43.8374 164.359L43.6093 164.804C43.2985 164.644 43.0067 164.484 42.7344 164.322L42.9898 163.892C42.696 163.717 42.428 163.543 42.1858 163.368L41.8935 163.774C41.604 163.565 41.3465 163.355 41.1218 163.142L41.4651 162.779C41.2252 162.552 41.0333 162.33 40.886 162.114L40.4728 162.396C40.2698 162.098 40.131 161.797 40.0587 161.493L40.5451 161.377C40.5149 161.251 40.5 161.125 40.5 161C40.5 160.875 40.5149 160.749 40.545 160.623L40.0587 160.507C40.131 160.203 40.2697 159.902 40.4728 159.604L40.8859 159.886C41.0333 159.67 41.2252 159.448 41.4651 159.221L41.1218 158.858C41.3464 158.645 41.604 158.435 41.8934 158.226L42.1858 158.632C42.428 158.457 42.696 158.283 42.9898 158.108L42.7344 157.678C43.0067 157.516 43.2985 157.356 43.6093 157.196L43.8374 157.641C44.1105 157.501 44.3995 157.362 44.7044 157.223L44.4972 156.768C44.7903 156.635 45.0968 156.502 45.4165 156.371L45.6065 156.833C45.902 156.712 46.2094 156.591 46.5286 156.471L46.3527 156.003C46.652 155.891 46.9611 155.779 47.2798 155.668L47.4441 156.14C47.7522 156.033 48.0696 155.927 48.3963 155.821L48.2423 155.345C48.5466 155.247 48.8587 155.149 49.1783 155.052L49.3237 155.53C49.6372 155.435 49.9583 155.34 50.2868 155.246L50.1493 154.766C50.4588 154.677 50.7748 154.589 51.097 154.502L51.2278 154.984C51.5464 154.898 51.8713 154.812 52.2025 154.727L52.078 154.243C52.39 154.163 52.7073 154.083 53.0299 154.004L53.1488 154.49C53.4697 154.411 53.7959 154.333 54.1273 154.256L54.0136 153.769C54.3294 153.695 54.6499 153.622 54.975 153.549L55.0841 154.037C55.4043 153.966 55.7291 153.895 56.0583 153.824L55.9536 153.335C56.2756 153.266 56.6017 153.198 56.9321 153.13L57.0328 153.62C57.3516 153.554 57.6742 153.489 58.0008 153.425L57.9038 152.934C58.2316 152.869 58.5633 152.805 58.8988 152.741L58.9922 153.232C59.3099 153.172 59.6312 153.112 59.9558 153.052L59.8656 152.561C60.1904 152.501 60.5185 152.442 60.8499 152.383L60.937 152.876C61.2628 152.818 61.5919 152.761 61.9242 152.704L61.8401 152.211C62.1618 152.157 62.4864 152.102 62.814 152.048L62.8954 152.541C63.2221 152.488 63.5517 152.434 63.8843 152.381L63.8056 151.887C64.1316 151.835 64.4604 151.784 64.792 151.733L64.8681 152.227C65.1913 152.177 65.5171 152.128 65.8455 152.079L65.7717 151.584C66.1009 151.535 66.4326 151.486 66.7669 151.438L66.8383 151.933C67.1639 151.886 67.492 151.839 67.8224 151.793L67.7532 151.298C68.0785 151.253 68.406 151.208 68.7359 151.163L68.803 151.658C69.1321 151.614 69.4636 151.57 69.7972 151.526L69.7322 151.03C70.0598 150.987 70.3896 150.944 70.7214 150.902L70.7845 151.398C71.1097 151.357 71.437 151.316 71.7663 151.275L71.7051 150.779C72.035 150.738 72.367 150.698 72.7009 150.658L72.7602 151.155C73.0892 151.115 73.4202 151.076 73.7531 151.038L73.6956 150.541C74.0215 150.503 74.3493 150.466 74.6789 150.429L74.7347 150.926C75.0637 150.889 75.3945 150.852 75.7271 150.816L75.673 150.319C76.0053 150.283 76.3393 150.247 76.6751 150.212L76.7275 150.709C77.0527 150.675 77.3796 150.641 77.708 150.607L77.6571 150.11C77.9861 150.076 78.3167 150.043 78.6489 150.01L78.6982 150.507C79.0299 150.474 79.3632 150.442 79.698 150.41L79.6502 149.912C79.9786 149.88 80.3084 149.849 80.6398 149.818L80.6862 150.316C81.0139 150.286 81.3431 150.255 81.6737 150.226L81.6288 149.728C81.9599 149.698 82.2924 149.668 82.6264 149.639L82.6699 150.137C83.0016 150.108 83.3347 150.079 83.6692 150.051L83.6271 149.553C83.9544 149.525 84.2831 149.498 84.6131 149.471L84.6539 149.969C84.9834 149.942 85.3142 149.916 85.6464 149.889L85.6069 149.391C85.9395 149.365 86.2733 149.339 86.6084 149.313L86.6466 149.811C86.9761 149.786 87.3068 149.761 87.6388 149.737L87.6019 149.238C87.9308 149.214 88.2608 149.19 88.592 149.166L88.6276 149.665C88.9584 149.641 89.2904 149.618 89.6235 149.595L89.5891 149.096C89.9226 149.073 90.2572 149.051 90.593 149.028L90.6262 149.527C90.9544 149.505 91.2836 149.484 91.6139 149.463L91.5819 148.964C91.9118 148.943 92.2427 148.922 92.5747 148.901L92.6055 149.4C92.9371 149.38 93.2698 149.36 93.6035 149.34L93.5738 148.841C93.9071 148.821 94.2413 148.801 94.5765 148.782L94.605 149.281C94.9333 149.263 95.2626 149.244 95.5928 149.226L95.5654 148.727C95.896 148.709 96.2276 148.691 96.5601 148.674L96.5863 149.173C96.9184 149.155 97.2515 149.138 97.5855 149.121L97.5603 148.622C97.893 148.605 98.2266 148.589 98.5611 148.573L98.5851 149.072C98.9141 149.056 99.2439 149.041 99.5746 149.025L99.5516 148.526C99.8826 148.511 100.215 148.496 100.547 148.481L100.569 148.981C100.902 148.966 101.235 148.952 101.569 148.938L101.548 148.438C101.881 148.424 102.214 148.411 102.548 148.398L102.568 148.897C102.897 148.884 103.228 148.871 103.558 148.859L103.54 148.359C103.871 148.347 104.203 148.335 104.536 148.323L104.554 148.823C104.886 148.811 105.219 148.799 105.553 148.788L105.537 148.288C105.869 148.277 106.203 148.266 106.537 148.256L106.553 148.755C106.883 148.745 107.213 148.735 107.544 148.725L107.529 148.225C107.861 148.216 108.193 148.206 108.526 148.197L108.539 148.697C108.872 148.688 109.205 148.679 109.539 148.67L109.526 148.17C109.859 148.162 110.193 148.154 110.528 148.146L110.539 148.646C110.869 148.638 111.2 148.63 111.531 148.623L111.52 148.123C111.851 148.116 112.183 148.109 112.516 148.103L112.526 148.603C112.858 148.596 113.191 148.59 113.525 148.584L113.516 148.084C113.85 148.078 114.184 148.072 114.519 148.067L114.527 148.567C114.857 148.562 115.188 148.557 115.519 148.552L115.512 148.052C115.843 148.048 116.175 148.043 116.507 148.039L116.513 148.539C116.846 148.535 117.178 148.531 117.511 148.528L117.506 148.028C117.84 148.025 118.174 148.022 118.509 148.019L118.513 148.519C118.844 148.516 119.175 148.513 119.507 148.511L119.504 148.011C119.835 148.009 120.167 148.007 120.499 148.006L120.501 148.506C120.833 148.504 121.166 148.503 121.499 148.502L121.497 148.002C121.831 148.001 122.164 148.001 122.498 148L122.499 148.5L123 148.5L123.501 148.5L123.502 148C123.836 148.001 124.169 148.001 124.503 148.002L124.501 148.502C124.834 148.503 125.167 148.504 125.499 148.506L125.501 148.006C125.833 148.007 126.165 148.009 126.496 148.011L126.493 148.511C126.825 148.513 127.156 148.516 127.487 148.519L127.491 148.019C127.826 148.022 128.16 148.025 128.494 148.028L128.489 148.528C128.822 148.531 129.154 148.535 129.487 148.539L129.493 148.039C129.825 148.043 130.157 148.048 130.488 148.052L130.481 148.552C130.812 148.557 131.143 148.562 131.473 148.567L131.481 148.067C131.816 148.072 132.15 148.078 132.484 148.084L132.475 148.584C132.809 148.59 133.142 148.596 133.474 148.603L133.484 148.103C133.817 148.109 134.149 148.116 134.48 148.123L134.469 148.623C134.8 148.63 135.131 148.638 135.461 148.646L135.472 148.146C135.807 148.154 136.141 148.162 136.474 148.17L136.461 148.67C136.795 148.679 137.128 148.688 137.461 148.697L137.474 148.197C137.807 148.206 138.139 148.216 138.471 148.225L138.456 148.725C138.787 148.735 139.117 148.745 139.447 148.755L139.463 148.256C139.797 148.266 140.131 148.277 140.463 148.288L140.447 148.788C140.781 148.799 141.114 148.811 141.446 148.823L141.464 148.323C141.797 148.335 142.129 148.347 142.46 148.359L142.441 148.859C142.772 148.871 143.103 148.884 143.432 148.897L143.452 148.398C143.786 148.411 144.119 148.424 144.452 148.438L144.431 148.938C144.765 148.952 145.098 148.966 145.431 148.981L145.453 148.481C145.785 148.496 146.117 148.511 146.448 148.526L146.425 149.025C146.756 149.041 147.086 149.056 147.415 149.072L147.439 148.573C147.773 148.589 148.107 148.605 148.44 148.622L148.414 149.121C148.748 149.138 149.082 149.155 149.414 149.173L149.44 148.674C149.772 148.691 150.104 148.709 150.435 148.727L150.407 149.226C150.737 149.244 151.067 149.263 151.395 149.281L151.423 148.782C151.759 148.801 152.093 148.821 152.426 148.841L152.396 149.34C152.73 149.36 153.063 149.38 153.394 149.4L153.425 148.901C153.757 148.922 154.088 148.943 154.418 148.964L154.386 149.463C154.716 149.484 155.046 149.505 155.374 149.527L155.407 149.028C155.743 149.051 156.077 149.073 156.411 149.096L156.377 149.595C156.71 149.618 157.042 149.641 157.372 149.665L157.408 149.166C157.739 149.19 158.069 149.214 158.398 149.238L158.361 149.737C158.693 149.761 159.024 149.786 159.353 149.811L159.392 149.313C159.727 149.339 160.061 149.365 160.393 149.391L160.354 149.889C160.686 149.916 161.017 149.942 161.346 149.969L161.387 149.471C161.717 149.498 162.046 149.525 162.373 149.553L162.331 150.051C162.665 150.079 162.998 150.108 163.33 150.137L163.374 149.639C163.708 149.668 164.04 149.698 164.371 149.728L164.326 150.225C164.657 150.255 164.986 150.286 165.314 150.316L165.36 149.818C165.692 149.849 166.021 149.88 166.35 149.912L166.302 150.41C166.637 150.442 166.97 150.474 167.302 150.507L167.351 150.01C167.683 150.043 168.014 150.076 168.343 150.11L168.292 150.607C168.62 150.641 168.947 150.675 169.272 150.709L169.325 150.212C169.661 150.247 169.995 150.283 170.327 150.319L170.273 150.816C170.605 150.852 170.936 150.889 171.265 150.926L171.321 150.429C171.651 150.466 171.978 150.503 172.304 150.541L172.247 151.038C172.58 151.076 172.911 151.115 173.24 151.155L173.299 150.658C173.633 150.698 173.965 150.738 174.295 150.779L174.234 151.275C174.563 151.316 174.89 151.357 175.215 151.398L175.279 150.902C175.61 150.944 175.94 150.987 176.268 151.03L176.203 151.526C176.536 151.57 176.868 151.614 177.197 151.658L177.264 151.163C177.594 151.208 177.922 151.253 178.247 151.298L178.178 151.793C178.508 151.839 178.836 151.886 179.162 151.933L179.233 151.438C179.567 151.486 179.899 151.535 180.228 151.584L180.154 152.079C180.483 152.128 180.809 152.177 181.132 152.227L181.208 151.733C181.54 151.784 181.868 151.835 182.194 151.887L182.116 152.381C182.448 152.434 182.778 152.488 183.105 152.541L183.186 152.048C183.514 152.102 183.838 152.156 184.16 152.211L184.076 152.704C184.408 152.761 184.737 152.818 185.063 152.876L185.15 152.383C185.481 152.442 185.81 152.501 186.134 152.561L186.044 153.052C186.369 153.112 186.69 153.172 187.008 153.232L187.101 152.741C187.437 152.805 187.768 152.869 188.096 152.934L187.999 153.425C188.326 153.489 188.648 153.554 188.967 153.62L189.068 153.13C189.398 153.198 189.724 153.266 190.046 153.335L189.942 153.824C190.271 153.895 190.596 153.966 190.916 154.037L191.025 153.549C191.35 153.622 191.671 153.695 191.986 153.769L191.873 154.256C192.204 154.333 192.53 154.411 192.851 154.49L192.97 154.004C193.293 154.083 193.61 154.163 193.922 154.243L193.798 154.727C194.129 154.812 194.454 154.898 194.772 154.984L194.903 154.502C195.225 154.589 195.541 154.677 195.851 154.766L195.713 155.246C196.042 155.34 196.363 155.435 196.676 155.53L196.822 155.052C197.141 155.149 197.453 155.247 197.758 155.345L197.604 155.821C197.93 155.927 198.248 156.033 198.556 156.14L198.72 155.668C199.039 155.779 199.348 155.891 199.647 156.003L199.471 156.471C199.791 156.591 200.098 156.712 200.393 156.833L200.583 156.371C200.903 156.502 201.21 156.635 201.503 156.768L201.296 157.223C201.6 157.362 201.89 157.501 202.163 157.641L202.391 157.196C202.702 157.356 202.993 157.516 203.266 157.678L203.01 158.108C203.304 158.283 203.572 158.457 203.814 158.632L204.107 158.226C204.396 158.435 204.654 158.645 204.878 158.858L204.535 159.221C204.775 159.448 204.967 159.67 205.114 159.886L205.527 159.604Z" fill="white" stroke="black" stroke-dasharray="1 1"/>
<ellipse cx="126" cy="161" rx="14" ry="3" fill="black"/>
<path d="M68.6103 58.866L126 25.7321L183.39 58.866V125.134L126 158.268L68.6103 125.134V58.866Z" fill="white" stroke="black" stroke-width="3"/>
<path d="M110.539 75.875V110H104.656L89.3516 85.5547V110H83.4688V75.875H89.3516L104.703 100.367V75.875H110.539ZM123.43 75.875V110H117.547V75.875H123.43ZM137.352 90.8047V95.4688H121.93V90.8047H137.352ZM139.297 75.875V80.5625H121.93V75.875H139.297ZM158.492 75.875V110H152.656V75.875H158.492ZM169.203 75.875V80.5625H142.039V75.875H169.203Z" fill="black"/>
<path d="M208 8L210.156 14.7602C211.534 19.0805 214.92 22.4657 219.24 23.8437L226 26L219.24 28.1563C214.92 29.5343 211.534 32.9195 210.156 37.2398L208 44L205.844 37.2398C204.466 32.9195 201.08 29.5343 196.76 28.1563L190 26L196.76 23.8437C201.08 22.4657 204.466 19.0805 205.844 14.7602L208 8Z" fill="black"/>
<path d="M84 0L84.2216 0.694801C85.5996 5.0151 88.9849 8.40035 93.3052 9.77838L94 10L93.3052 10.2216C88.9849 11.5996 85.5996 14.9849 84.2216 19.3052L84 20L83.7784 19.3052C82.4004 14.9849 79.0151 11.5996 74.6948 10.2216L74 10L74.6948 9.77838C79.0151 8.40035 82.4004 5.0151 83.7784 0.694801L84 0Z" fill="black"/>
<ellipse cx="38.3132" cy="41.5427" rx="13.1933" ry="7.19633" transform="rotate(-36.3004 38.3132 41.5427)" fill="black"/>
<path d="M46.72 32.3915C47.5782 33.5598 47.6062 35.4409 46.5185 37.7641C45.4491 40.0483 43.3894 42.5266 40.5615 44.6039C37.7336 46.6812 34.7528 47.9056 32.2534 48.2431C29.7112 48.5863 27.9246 47.9971 27.0663 46.8288C26.208 45.6604 26.18 43.7793 27.2677 41.4561C28.3372 39.172 30.3969 36.6937 33.2248 34.6163C36.0527 32.539 39.0335 31.3146 41.5329 30.9771C44.0751 30.6339 45.8617 31.2231 46.72 32.3915Z" fill="white" stroke="black" stroke-width="2"/>
</svg>
