<svg width="78" height="76" viewBox="0 0 78 76" fill="none" xmlns="http://www.w3.org/2000/svg">
<path d="M71.2211 42.5476C73.4885 38.7002 73.5312 33.9354 71.333 30.0481L60.281 10.5035C58.0828 6.61616 53.9777 4.19683 49.5121 4.15685L27.06 3.95585C22.5943 3.91587 18.4466 6.26132 16.1791 10.1087L4.779 29.4523C2.51156 33.2996 2.46891 38.0644 4.6671 41.9518L15.7191 61.4964C17.9173 65.3837 22.0224 67.803 26.488 67.843L48.9401 68.044C53.4058 68.084 57.5535 65.7385 59.8209 61.8912L71.2211 42.5476Z" fill="#4A8BF3" stroke="white" stroke-width="5"/>
<path d="M30.3398 27.9375V45H27.1055L19.8516 33.1641V45H16.6289V27.9375H19.8516L27.1289 39.7852V27.9375H30.3398ZM36.8438 27.9375V45H33.6211V27.9375H36.8438ZM43.7227 35.3086V37.8516H36V35.3086H43.7227ZM44.625 27.9375V30.4805H36V27.9375H44.625ZM54.375 27.9375V45H51.1641V27.9375H54.375ZM59.6719 27.9375V30.4805H45.9258V27.9375H59.6719Z" fill="white"/>
</svg>
