<svg width="76" height="76" viewBox="0 0 76 76" fill="none" xmlns="http://www.w3.org/2000/svg">
<path d="M39 6L68.4449 23V57L39 74L9.55514 57V23L39 6Z" fill="black"/>
<path d="M7.55514 19.5774L36 3.1547L64.4449 19.5774V52.4226L36 68.8453L7.55514 52.4226V19.5774Z" fill="white" stroke="black" stroke-width="2"/>
<path d="M28.3398 27.9375V45H25.1055L17.8516 33.1641V45H14.6289V27.9375H17.8516L25.1289 39.7852V27.9375H28.3398ZM34.8438 27.9375V45H31.6211V27.9375H34.8438ZM41.7227 35.3086V37.8516H34V35.3086H41.7227ZM42.625 27.9375V30.4805H34V27.9375H42.625ZM52.375 27.9375V45H49.1641V27.9375H52.375ZM57.6719 27.9375V30.4805H43.9258V27.9375H57.6719Z" fill="black"/>
</svg>
