<svg width="76" height="76" viewBox="0 0 76 76" fill="none" xmlns="http://www.w3.org/2000/svg">
<circle cx="36.9286" cy="36.9286" r="31.4286" fill="#F0AEAE" stroke="white" stroke-width="5"/>
<circle cx="36.9287" cy="29.2711" r="8.71008" stroke="white" stroke-width="3"/>
<mask id="path-3-inside-1_2620_2964" fill="white">
<path fill-rule="evenodd" clip-rule="evenodd" d="M15.2133 56.0425C18.3268 48.8789 26.873 43.7349 36.928 43.7349C46.9833 43.7349 55.5296 48.8791 58.643 56.0428C58.2272 56.5149 57.7962 56.9733 57.3508 57.4172C54.8205 50.6667 46.8801 45.4365 36.928 45.4365C26.9762 45.4365 19.0359 50.6665 16.5054 57.4168C16.0601 56.9729 15.6291 56.5145 15.2133 56.0425Z"/>
</mask>
<path fill-rule="evenodd" clip-rule="evenodd" d="M15.2133 56.0425C18.3268 48.8789 26.873 43.7349 36.928 43.7349C46.9833 43.7349 55.5296 48.8791 58.643 56.0428C58.2272 56.5149 57.7962 56.9733 57.3508 57.4172C54.8205 50.6667 46.8801 45.4365 36.928 45.4365C26.9762 45.4365 19.0359 50.6665 16.5054 57.4168C16.0601 56.9729 15.6291 56.5145 15.2133 56.0425Z" fill="black"/>
<path d="M15.2133 56.0425L11.5448 54.448L10.5316 56.7792L12.2117 58.6865L15.2133 56.0425ZM58.643 56.0428L61.6445 58.6869L63.3246 56.7796L62.3115 54.4485L58.643 56.0428ZM57.3508 57.4172L53.6053 58.8211L55.7821 64.6287L60.1747 60.2502L57.3508 57.4172ZM16.5054 57.4168L13.6815 60.2498L18.074 64.6283L20.2509 58.8209L16.5054 57.4168ZM36.928 39.7349C25.6614 39.7349 15.4324 45.5035 11.5448 54.448L18.8817 57.6369C21.2212 52.2543 28.0846 47.7349 36.928 47.7349V39.7349ZM62.3115 54.4485C58.4241 45.5037 48.1949 39.7349 36.928 39.7349V47.7349C45.7716 47.7349 52.6351 52.2544 54.9745 57.6372L62.3115 54.4485ZM55.6415 53.3987C55.2828 53.8059 54.9111 54.2013 54.5269 54.5842L60.1747 60.2502C60.6812 59.7452 61.1715 59.2238 61.6445 58.6869L55.6415 53.3987ZM61.0963 56.0133C57.8487 47.3489 48.1369 41.4365 36.928 41.4365V49.4365C45.6233 49.4365 51.7924 53.9845 53.6053 58.8211L61.0963 56.0133ZM36.928 41.4365C25.7194 41.4365 16.0078 47.3487 12.7599 56.0128L20.2509 58.8209C22.064 53.9843 28.233 49.4365 36.928 49.4365V41.4365ZM19.3294 54.5839C18.9452 54.201 18.5734 53.8056 18.2148 53.3984L12.2117 58.6865C12.6847 59.2234 13.1749 59.7448 13.6815 60.2498L19.3294 54.5839Z" fill="white" mask="url(#path-3-inside-1_2620_2964)"/>
<circle cx="19.7857" cy="54.0714" r="11.7857" fill="#DF9898" stroke="white" stroke-width="4"/>
<path d="M14.2031 54.692L17.9249 58.4138L25.3685 50.9702" stroke="white" stroke-width="3" stroke-linecap="round" stroke-linejoin="round"/>
</svg>
