<svg width="60" height="60" viewBox="0 0 60 60" fill="none" xmlns="http://www.w3.org/2000/svg">
<circle cx="31.0716" cy="31.0716" r="28.9286" fill="black"/>
<circle cx="28.9286" cy="28.9286" r="27.8571" fill="white" stroke="black" stroke-width="2.14286"/>
<circle cx="28.9288" cy="21.2711" r="9.13866" stroke="black" stroke-width="2.14286"/>
<mask id="path-4-inside-1_2197_1764" fill="white">
<path fill-rule="evenodd" clip-rule="evenodd" d="M7.21354 48.0425C10.3271 40.8789 18.8733 35.7349 28.9283 35.7349C38.9835 35.7349 47.5299 40.8791 50.6433 48.0428C50.2274 48.5149 49.7964 48.9733 49.3511 49.4172C46.8208 42.6667 38.8804 37.4365 28.9283 37.4365C18.9764 37.4365 11.0361 42.6665 8.50572 49.4168C8.06035 48.9729 7.62937 48.5145 7.21354 48.0425Z"/>
</mask>
<path fill-rule="evenodd" clip-rule="evenodd" d="M7.21354 48.0425C10.3271 40.8789 18.8733 35.7349 28.9283 35.7349C38.9835 35.7349 47.5299 40.8791 50.6433 48.0428C50.2274 48.5149 49.7964 48.9733 49.3511 49.4172C46.8208 42.6667 38.8804 37.4365 28.9283 37.4365C18.9764 37.4365 11.0361 42.6665 8.50572 49.4168C8.06035 48.9729 7.62937 48.5145 7.21354 48.0425Z" fill="black"/>
<path d="M7.21354 48.0425L6.23091 47.6154L5.95952 48.2398L6.40956 48.7507L7.21354 48.0425ZM50.6433 48.0428L51.4472 48.7511L51.8973 48.2402L51.6259 47.6158L50.6433 48.0428ZM49.3511 49.4172L48.3478 49.7933L48.9309 51.3488L50.1075 50.176L49.3511 49.4172ZM8.50572 49.4168L7.74931 50.1757L8.92587 51.3485L9.50898 49.7929L8.50572 49.4168ZM28.9283 34.6634C18.5488 34.6634 9.55178 39.9748 6.23091 47.6154L8.19617 48.4695C11.1024 41.783 19.1978 36.8063 28.9283 36.8063V34.6634ZM51.6259 47.6158C48.3052 39.975 39.3081 34.6634 28.9283 34.6634V36.8063C38.659 36.8063 46.7546 41.7832 49.6606 48.4699L51.6259 47.6158ZM49.8393 47.3346C49.4388 47.7893 49.0237 48.2308 48.5947 48.6584L50.1075 50.176C50.5692 49.7157 51.0161 49.2405 51.4472 48.7511L49.8393 47.3346ZM50.3543 49.0412C47.6319 41.778 39.217 36.3651 28.9283 36.3651V38.508C38.5437 38.508 46.0097 43.5554 48.3478 49.7933L50.3543 49.0412ZM28.9283 36.3651C18.6398 36.3651 10.2251 41.7778 7.50247 49.0408L9.50898 49.7929C11.8472 43.5552 19.3131 38.508 28.9283 38.508V36.3651ZM9.26213 48.658C8.83315 48.2304 8.41803 47.7889 8.01752 47.3342L6.40956 48.7507C6.8407 49.2401 7.28755 49.7154 7.74931 50.1757L9.26213 48.658Z" fill="black" mask="url(#path-4-inside-1_2197_1764)"/>
<circle cx="11.7857" cy="46.0714" r="10.7143" fill="black" stroke="white" stroke-width="2.14286"/>
<path d="M6.20312 46.692L9.92493 50.4138L17.3685 42.9702" stroke="white" stroke-width="1.60714" stroke-linecap="round" stroke-linejoin="round"/>
</svg>
