<svg width="256" height="256" viewBox="0 0 256 256" fill="none" xmlns="http://www.w3.org/2000/svg">
<path fill-rule="evenodd" clip-rule="evenodd" d="M128 256C198.692 256 256 198.692 256 128C256 57.3076 198.692 0 128 0C57.3076 0 0 57.3076 0 128C0 198.692 57.3076 256 128 256Z" fill="url(#paint0_linear_644_215)"/>
<path d="M209.087 82.2858C214.986 82.2858 219.849 86.8685 219.401 93.1992C219.011 98.7143 214.652 102.822 209.087 102.822C185.887 102.822 164.667 104.394 145.43 107.527C138.65 108.631 132.216 109.852 126.128 111.19L124.151 111.634L124.579 112.233C126.092 114.522 126.623 117.356 126.036 120.164L125.848 120.929L125.594 121.694C124.16 125.458 122.844 129.912 121.66 135.045L121.106 137.527L122.061 137.346C125.405 136.722 128.761 136.147 132.129 135.621L137.189 134.869C142.274 134.152 147.254 133.571 152.131 133.129C157.042 132.683 161.614 132.403 165.851 132.291L166.629 132.27L167.399 132.381C173.043 133.195 176.979 138.163 176.088 144.013C175.36 148.792 171.674 152.824 166.337 152.821C162.504 152.923 158.288 153.179 153.695 153.591C149.069 154.006 144.335 154.552 139.493 155.228C134.635 155.906 129.804 156.689 124.999 157.576C123.094 157.928 121.235 158.291 119.424 158.667L117.961 158.976L117.873 160.299C117.82 161.197 117.785 162.06 117.767 162.887L117.754 164.1C117.754 165.586 117.799 166.876 117.884 167.96C117.942 168.688 118.044 169.268 118.205 169.81C119.838 175.582 116.499 181.314 110.544 182.602C105.418 183.711 100.242 181.098 98.4137 175.547C97.8898 173.783 97.5711 171.853 97.4209 169.729C97.3293 168.434 97.2727 167.056 97.2501 165.592L97.2433 164.827L96.6934 165.028C95.353 165.529 94.2262 166.022 93.3211 166.496L92.684 166.848L91.6997 167.424L90.6042 167.74C85.5602 169.195 80.0271 167.022 78.0349 161.49C76.3528 156.82 78.1107 151.791 82.6758 149.033C85.3281 147.56 88.5937 146.178 92.5176 144.837C94.3513 144.21 96.3077 143.587 98.3877 142.967L99.1404 142.743L99.3361 141.525C99.7364 139.109 100.181 136.698 100.67 134.291L101.437 130.685C102.464 126.065 103.628 121.817 104.936 117.937L105.399 116.603L103.627 117.158C101.906 117.706 100.224 118.267 98.5807 118.841L96.1444 119.711C82.8235 124.579 72.6473 129.976 65.6318 135.775C59.6389 140.73 57.0863 145.02 57.0863 148.665C57.0863 150.264 57.4936 151.395 58.3975 152.453C59.0872 153.26 59.5509 153.49 60.3334 153.515L60.0451 153.51C65.9765 153.51 70.6649 158.244 70.1965 164.392C69.8326 169.169 66.4628 173.095 61.5623 173.92L60.5674 174.087L59.5599 174.034C53.065 173.689 47.3877 170.912 43.0175 165.99C38.7484 161.182 36.5713 155.264 36.5713 148.665C36.5713 138.647 41.9358 129.429 51.818 121.036C60.727 113.471 72.8524 106.872 88.2041 101.116C103.23 95.4822 121.011 90.9456 141.564 87.4777C162.099 84.0127 184.605 82.2858 209.087 82.2858Z" fill="white"/>
<defs>
<linearGradient id="paint0_linear_644_215" x1="0" y1="0" x2="217.143" y2="217.143" gradientUnits="userSpaceOnUse">
<stop stop-color="#434B34"/>
<stop offset="1"/>
</linearGradient>
</defs>
</svg>
