<svg width="128" height="28" viewBox="0 0 128 28" fill="none" xmlns="http://www.w3.org/2000/svg">
<g clip-path="url(#clip0_1247_6433)">
<path fill-rule="evenodd" clip-rule="evenodd" d="M92.7414 23V10.988H97.9214V9.41998H92.7414V7.40398C92.7414 5.38798 93.8894 4.60398 95.7654 4.60398C96.6054 4.60398 97.3894 4.85598 98.0054 5.24798V3.51198C97.3334 3.17598 96.5214 2.97998 95.6254 2.97998C92.6854 2.97998 91.0054 4.82798 91.0054 7.37598V9.41998H88.3174V10.988H91.0054V23H92.7414ZM69.3332 6.14399C70.0332 6.14399 70.5652 5.58399 70.5652 4.85599C70.5652 4.12799 70.0332 3.56799 69.3332 3.56799C68.6332 3.56799 68.0732 4.12799 68.0732 4.85599C68.0732 5.58399 68.6332 6.14399 69.3332 6.14399ZM68.4652 9.41999V23H70.2012V9.41999H68.4652ZM51.245 19.164C49.761 21.74 46.989 23.308 43.853 23.308C38.729 23.308 34.501 19.024 34.501 13.62C34.501 8.27198 38.729 3.98798 43.853 3.98798C46.989 3.98798 49.761 5.58398 51.245 8.15998L49.789 9.02798C48.529 6.95598 46.289 5.69598 43.797 5.69598C39.709 5.69598 36.349 9.19598 36.349 13.62C36.349 18.1 39.681 21.6 43.797 21.6C46.289 21.6 48.529 20.368 49.789 18.296L51.245 19.164ZM66.0147 16.168C66.0147 20.088 62.9067 23.28 58.9027 23.28C54.8707 23.28 51.7627 20.088 51.7627 16.168C51.7627 12.276 54.9267 9.11197 58.9027 9.11197C62.9627 9.11197 66.0147 12.304 66.0147 16.168ZM53.4987 16.196C53.4987 19.164 55.8787 21.628 58.9027 21.628C61.8987 21.628 64.2787 19.164 64.2787 16.196C64.2787 13.228 61.8987 10.764 58.9027 10.764C55.8787 10.764 53.4987 13.228 53.4987 16.196ZM84.9709 16.224C84.9709 13.312 83.2629 10.764 80.0989 10.764C77.0189 10.764 75.3669 13.312 75.3669 16.196V23H73.6309V16.056C73.6309 12.136 76.0109 9.11197 80.0989 9.11197C84.2709 9.11197 86.7069 12.108 86.7069 16.028V23H84.9709V16.224ZM110.255 19.836C109.219 21.88 107.119 23.28 104.543 23.28C100.623 23.28 97.6553 20.088 97.6553 16.168C97.6553 12.304 100.707 9.11197 104.767 9.11197C108.771 9.11197 111.907 12.192 111.907 16.168V23H110.255V19.836ZM99.3913 16.196C99.3913 19.164 101.771 21.628 104.767 21.628C107.791 21.628 110.171 19.164 110.171 16.196C110.171 13.228 107.791 10.764 104.767 10.764C101.771 10.764 99.3913 13.228 99.3913 16.196ZM116.205 6.14399C116.905 6.14399 117.437 5.58399 117.437 4.85599C117.437 4.12799 116.905 3.56799 116.205 3.56799C115.505 3.56799 114.945 4.12799 114.945 4.85599C114.945 5.58399 115.505 6.14399 116.205 6.14399ZM115.337 9.41999V23H117.073V9.41999H115.337ZM122.239 14.712V23H120.503V14.628C120.503 11.464 122.323 9.22397 125.459 9.22397C126.299 9.22397 127.111 9.39197 127.811 9.72797V11.492C127.139 11.1 126.383 10.904 125.599 10.904C123.527 10.904 122.239 12.388 122.239 14.712Z" fill="black"/>
<path fill-rule="evenodd" clip-rule="evenodd" d="M14.001 28C21.733 28 28.001 21.732 28.001 14C28.001 6.26802 21.733 0 14.001 0C6.26899 0 0.000976562 6.26802 0.000976562 14C0.000976562 21.732 6.26899 28 14.001 28Z" fill="url(#paint0_linear_1247_6433)"/>
<path d="M22.8698 9C23.5151 9 24.047 9.50123 23.998 10.1937C23.9553 10.7969 23.4785 11.2462 22.8698 11.2462C20.3324 11.2462 18.0114 11.4181 15.9074 11.7607C15.1659 11.8815 14.4621 12.0151 13.7963 12.1614L13.58 12.21L13.6269 12.2755C13.7923 12.5259 13.8504 12.8358 13.7862 13.1429L13.7656 13.2266L13.7379 13.3102C13.581 13.7219 13.4371 14.2091 13.3075 14.7706L13.247 15.042L13.3514 15.0222C13.7172 14.954 14.0842 14.8911 14.4526 14.8336L15.0061 14.7513C15.5622 14.6728 16.1069 14.6094 16.6403 14.561C17.1774 14.5122 17.6775 14.4816 18.1409 14.4693L18.226 14.467L18.3103 14.4792C18.9276 14.5682 19.3581 15.1116 19.2606 15.7515C19.181 16.2742 18.7778 16.7151 18.1941 16.7148C17.7748 16.7259 17.3138 16.754 16.8114 16.799C16.3054 16.8445 15.7876 16.9041 15.258 16.9781C14.7267 17.0523 14.1983 17.1379 13.6728 17.2349C13.4644 17.2733 13.2611 17.3131 13.063 17.3542L12.903 17.388L12.8934 17.5327C12.8875 17.631 12.8837 17.7253 12.8818 17.8157L12.8803 17.9484C12.8803 18.111 12.8852 18.2521 12.8946 18.3706C12.9009 18.4503 12.9121 18.5136 12.9296 18.573C13.1083 19.2043 12.7431 19.8312 12.0918 19.9721C11.5311 20.0934 10.965 19.8076 10.765 19.2004C10.7077 19.0075 10.6728 18.7964 10.6564 18.5641C10.6464 18.4225 10.6402 18.2718 10.6377 18.1117L10.637 18.028L10.5768 18.0499C10.4302 18.1047 10.307 18.1586 10.208 18.2105L10.1383 18.249L10.0306 18.3119L9.91083 18.3465C9.35914 18.5057 8.75396 18.268 8.53606 17.663C8.35208 17.1521 8.54435 16.6021 9.04365 16.3004C9.33376 16.1393 9.69093 15.9882 10.1201 15.8415C10.3207 15.773 10.5346 15.7048 10.7622 15.637L10.8445 15.6125L10.8659 15.4793C10.9097 15.2151 10.9583 14.9513 11.0118 14.6881L11.0957 14.2937C11.2079 13.7884 11.3353 13.3237 11.4784 12.8993L11.529 12.7535L11.3352 12.8141C11.147 12.8741 10.963 12.9355 10.7833 12.9982L10.5168 13.0934C9.05981 13.6259 7.94679 14.2161 7.17948 14.8504C6.52399 15.3923 6.2448 15.8615 6.2448 16.2603C6.2448 16.4351 6.28936 16.5588 6.38822 16.6745C6.46365 16.7628 6.51437 16.7879 6.59996 16.7906L6.56842 16.7902C7.21717 16.7902 7.72997 17.3079 7.67874 17.9804C7.63893 18.5029 7.27036 18.9323 6.73437 19.0225L6.62555 19.0408L6.51535 19.0349C5.80498 18.9972 5.18402 18.6935 4.70603 18.1552C4.2391 17.6293 4.00098 16.982 4.00098 16.2603C4.00098 15.1646 4.58772 14.1562 5.66859 13.2384C6.64301 12.4109 7.96922 11.6891 9.64832 11.0595C11.2918 10.4434 13.2365 9.94717 15.4845 9.56787C17.7306 9.18889 20.1922 9 22.8698 9Z" fill="white"/>
</g>
<defs>
<linearGradient id="paint0_linear_1247_6433" x1="0.000976563" y1="0" x2="23.751" y2="23.75" gradientUnits="userSpaceOnUse">
<stop stop-color="#434B34"/>
<stop offset="1"/>
</linearGradient>
<clipPath id="clip0_1247_6433">
<rect width="127.57" height="28" fill="white"/>
</clipPath>
</defs>
</svg>
